<svg xmlns="http://www.w3.org/2000/svg" viewBox="0 0 256 256" width="256" height="256">
  <!-- Claw marks -->
  <g transform="translate(128,88)">
    <path d="M-7,-55 C-7,-55 -42,-38 -50,-6 C-53,7 -48,14 -40,13 C-34,11 -30,-2 -27,-13 C-22,-29 -12,-40 -7,-44Z"
          fill="#1E1B4B" opacity="0.85"/>
    <path d="M0,-62 C0,-62 -3,-40 -3,-22 C-3,-5 -1,13 0,26 C1,13 3,-5 3,-22 C3,-40 0,-62 0,-62Z"
          fill="#0F0D1A"/>
    <path d="M7,-55 C7,-55 42,-38 50,-6 C53,7 48,14 40,13 C34,11 30,-2 27,-13 C22,-29 12,-40 7,-44Z"
          fill="#1E1B4B" opacity="0.85"/>
  </g>
  <!-- Anchor -->
  <g transform="translate(128,142)">
    <line x1="-36" y1="0" x2="36" y2="0" stroke="#1E1B4B" stroke-width="4" stroke-linecap="round"/>
    <circle cx="0" cy="-11" r="8" fill="none" stroke="#1E1B4B" stroke-width="3.5"/>
    <line x1="0" y1="-3" x2="0" y2="42" stroke="#1E1B4B" stroke-width="3.5" stroke-linecap="round"/>
    <path d="M-22,34 C-22,34 -8,50 0,50 C8,50 22,34 22,34" fill="none" stroke="#1E1B4B" stroke-width="3.5" stroke-linecap="round"/>
    <path d="M-24,32 L-29,27" stroke="#1E1B4B" stroke-width="3.5" stroke-linecap="round"/>
    <path d="M24,32 L29,27" stroke="#1E1B4B" stroke-width="3.5" stroke-linecap="round"/>
  </g>
</svg>