<svg xmlns="http://www.w3.org/2000/svg" viewBox="0 0 300 320" width="300" height="320">
  <defs>
    <linearGradient id="g1" x1="0%" y1="0%" x2="100%" y2="100%">
      <stop offset="0%" stop-color="#7C3AED"/>
      <stop offset="100%" stop-color="#4F46E5"/>
    </linearGradient>
    <linearGradient id="g2" x1="0%" y1="0%" x2="100%" y2="100%">
      <stop offset="0%" stop-color="#A78BFA"/>
      <stop offset="100%" stop-color="#7C3AED"/>
    </linearGradient>
  </defs>

  <!-- Icon centered -->
  <g transform="translate(150,90)">
    <!-- Claw marks -->
    <g transform="translate(0,-8)">
      <path d="M-7,-55 C-7,-55 -42,-38 -50,-6 C-53,7 -48,14 -40,13 C-34,11 -30,-2 -27,-13 C-22,-29 -12,-40 -7,-44Z"
            fill="url(#g2)"/>
      <path d="M0,-62 C0,-62 -3,-40 -3,-22 C-3,-5 -1,13 0,26 C1,13 3,-5 3,-22 C3,-40 0,-62 0,-62Z"
            fill="url(#g1)"/>
      <path d="M7,-55 C7,-55 42,-38 50,-6 C53,7 48,14 40,13 C34,11 30,-2 27,-13 C22,-29 12,-40 7,-44Z"
            fill="url(#g2)"/>
    </g>
    <!-- Anchor -->
    <g transform="translate(0,50)">
      <line x1="-36" y1="0" x2="36" y2="0" stroke="#A78BFA" stroke-width="4" stroke-linecap="round"/>
      <circle cx="0" cy="-11" r="8" fill="none" stroke="#A78BFA" stroke-width="3.5"/>
      <line x1="0" y1="-3" x2="0" y2="42" stroke="#A78BFA" stroke-width="3.5" stroke-linecap="round"/>
      <path d="M-22,34 C-22,34 -8,50 0,50 C8,50 22,34 22,34" fill="none" stroke="#A78BFA" stroke-width="3.5" stroke-linecap="round"/>
      <path d="M-24,32 L-29,27" stroke="#A78BFA" stroke-width="3.5" stroke-linecap="round"/>
      <path d="M24,32 L29,27" stroke="#A78BFA" stroke-width="3.5" stroke-linecap="round"/>
    </g>
  </g>

  <!-- Wordmark -->
  <text x="150" y="260" text-anchor="middle" font-family="'SF Pro Display', 'Segoe UI', 'Helvetica Neue', Arial, sans-serif"
        font-size="44" font-weight="700" letter-spacing="5" fill="#E0E0FF">
    CREWDOCK
  </text>

  <!-- Tagline -->
  <text x="150" y="286" text-anchor="middle" font-family="'SF Pro Display', 'Segoe UI', 'Helvetica Neue', Arial, sans-serif"
        font-size="12" font-weight="400" letter-spacing="3" fill="#A78BFA" opacity="0.6">
    AUTONOMOUS AI CREW
  </text>
</svg>