<svg xmlns="http://www.w3.org/2000/svg" viewBox="0 -16 520 136" width="520" height="136">
  <defs>
    <linearGradient id="g1" x1="0%" y1="0%" x2="100%" y2="100%">
      <stop offset="0%" stop-color="#7C3AED"/>
      <stop offset="100%" stop-color="#4F46E5"/>
    </linearGradient>
    <linearGradient id="g2" x1="0%" y1="0%" x2="100%" y2="100%">
      <stop offset="0%" stop-color="#A78BFA"/>
      <stop offset="100%" stop-color="#7C3AED"/>
    </linearGradient>
  </defs>

  <!-- Icon -->
  <g transform="translate(55,28)">
    <!-- Claw marks -->
    <g transform="translate(0,-4)">
      <path d="M-5,-32 C-5,-32 -26,-22 -30,-4 C-32,4 -29,8 -24,7.5 C-20,6.5 -18,-1 -16,-8 C-13,-17 -7,-24 -5,-26Z"
            fill="url(#g2)"/>
      <path d="M0,-36 C0,-36 -2,-24 -2,-13 C-2,-3 -1,8 0,15 C1,8 2,-3 2,-13 C2,-24 0,-36 0,-36Z"
            fill="url(#g1)"/>
      <path d="M5,-32 C5,-32 26,-22 30,-4 C32,4 29,8 24,7.5 C20,6.5 18,-1 16,-8 C13,-17 7,-24 5,-26Z"
            fill="url(#g2)"/>
    </g>
    <!-- Anchor -->
    <g transform="translate(0,28)">
      <line x1="-20" y1="0" x2="20" y2="0" stroke="#A78BFA" stroke-width="2.8" stroke-linecap="round"/>
      <circle cx="0" cy="-7" r="5" fill="none" stroke="#A78BFA" stroke-width="2.2"/>
      <line x1="0" y1="-2" x2="0" y2="26" stroke="#A78BFA" stroke-width="2.5" stroke-linecap="round"/>
      <path d="M-14,21 C-14,21 -5,31 0,31 C5,31 14,21 14,21" fill="none" stroke="#A78BFA" stroke-width="2.5" stroke-linecap="round"/>
      <path d="M-15,20 L-18,16" stroke="#A78BFA" stroke-width="2.2" stroke-linecap="round"/>
      <path d="M15,20 L18,16" stroke="#A78BFA" stroke-width="2.2" stroke-linecap="round"/>
    </g>
  </g>

  <!-- Divider -->
  <line x1="110" y1="20" x2="110" y2="100" stroke="#A78BFA" stroke-width="1" opacity="0.3"/>

  <!-- Wordmark -->
  <text x="130" y="72" font-family="'SF Pro Display', 'Segoe UI', 'Helvetica Neue', Arial, sans-serif"
        font-size="48" font-weight="700" letter-spacing="4" fill="#E0E0FF">
    CREWDOCK
  </text>

  <!-- Tagline -->
  <text x="132" y="94" font-family="'SF Pro Display', 'Segoe UI', 'Helvetica Neue', Arial, sans-serif"
        font-size="12" font-weight="400" letter-spacing="3" fill="#A78BFA" opacity="0.6">
    AUTONOMOUS AI CREW
  </text>
</svg>